<?xml version="1.0" encoding="UTF-8" standalone="no"?>
<svg
   xmlns="http://www.w3.org/2000/svg"
   version="1.1"
   x="0px"
   y="0px"
   width="540"
   height="164"
   viewBox="0 0 540 164"
   enable-background="new 0 0 960 240"
   xml:space="preserve">
<g
   id="Tagline"
   transform="translate(0,-76)">
</g>
<g
   id="Upscheme_Text"
   transform="translate(-206.9949,-333.52122)">
	<path
   d="m 376.917,389.381 v 34.658 c 0,4.138 0,7.316 2.586,11.011 1.921,2.734 5.542,4.582 9.533,4.582 3.917,0 7.538,-1.773 9.385,-4.508 2.586,-3.621 2.586,-6.798 2.586,-11.084 v -34.658 h 6.06 v 34.658 c 0.074,6.355 -0.739,12.637 -6.208,16.849 -3.03,2.586 -7.094,4.138 -11.824,4.138 -3.843,0 -8.646,-1.108 -12.045,-4.138 -5.764,-4.655 -6.208,-10.863 -6.208,-16.849 v -34.658 h 6.135 z"
   style="fill:#ffffff" />
	<path
   d="m 417.042,404.309 h 5.173 v 8.277 c 3.251,-5.764 9.016,-9.385 16.627,-9.385 13.375,0 20.396,10.863 20.396,21.135 0,11.085 -8.055,20.839 -20.396,20.839 -8.794,0 -14.484,-5.099 -16.332,-9.237 v 8.129 15.075 h -5.468 z m 36.728,19.804 c 0,-7.464 -5.247,-15.888 -15.962,-15.888 -4.434,0 -8.35,1.774 -11.232,4.656 -2.734,2.882 -4.434,6.873 -4.434,11.38 0,4.434 1.7,8.424 4.582,11.306 2.808,2.809 6.798,4.508 11.232,4.508 8.942,0 15.814,-6.798 15.814,-15.888 z"
   style="fill:#ffffff" />
	<path
   d="m 484.731,414.285 c 0,-4.212 -2.808,-6.577 -6.799,-6.577 -4.36,0 -7.02,2.956 -6.873,6.429 0.148,3.769 3.03,5.321 7.833,6.725 5.69,1.552 12.046,3.178 12.341,11.676 0.296,7.316 -5.616,12.637 -13.154,12.637 -6.429,0 -13.523,-4.064 -13.597,-12.415 h 5.395 c 0.222,5.469 4.286,7.907 8.276,7.907 4.582,0 7.76,-3.399 7.686,-7.464 -0.148,-4.508 -3.104,-6.355 -9.976,-8.35 -5.69,-1.7 -10.124,-3.991 -10.272,-10.272 0,-7.168 5.69,-11.38 12.415,-11.38 5.542,0 11.749,3.03 12.119,11.084 z"
   style="fill:#ffffff" />
	<path
   d="m 538.086,430.616 c -2.588,8.425 -10.346,14.558 -19.879,14.558 -13.449,0 -21.357,-10.346 -21.357,-20.987 0,-11.75 8.942,-20.987 20.988,-20.987 8.941,0 17.514,5.321 20.248,14.854 h -5.617 c -2.512,-6.725 -8.793,-9.829 -14.41,-9.829 -4.655,0 -7.906,1.404 -11.232,4.508 -2.66,2.586 -4.508,6.873 -4.508,11.455 0,9.385 7.094,15.888 15.666,15.888 7.611,-0.074 12.711,-4.655 14.41,-9.459 h 5.691 z"
   style="fill:#ffffff" />
	<path
   d="m 544.809,389.381 h 5.469 v 14.558 6.873 c 2.438,-5.247 8.572,-7.759 14.188,-7.611 6.281,0 10.42,1.995 13.154,5.468 2.734,3.474 3.77,8.277 3.77,13.967 v 21.431 h -5.395 v -21.209 c 0,-4.286 -0.887,-7.907 -2.883,-10.493 -2.143,-2.587 -5.246,-4.064 -9.977,-4.064 -4.359,0 -7.611,1.552 -9.68,3.917 -2.145,2.365 -3.178,5.616 -3.178,9.237 v 22.613 h -5.469 v -54.687 z"
   style="fill:#ffffff" />
	<path
   d="m 593.58,425.739 c 0.295,9.976 8.793,14.78 15.518,14.706 6.133,0 11.084,-3.03 13.672,-8.203 h 5.689 c -1.848,4.286 -4.656,7.538 -8.055,9.681 -3.326,2.143 -7.242,3.251 -11.307,3.251 -13.818,0 -20.986,-11.011 -20.986,-20.913 0,-11.676 9.016,-21.061 20.912,-21.061 5.617,0 10.789,1.995 14.559,5.616 4.582,4.434 6.799,10.567 6.207,16.923 z m 30.815,-4.36 c -0.369,-6.946 -7.094,-13.745 -15.297,-13.523 -8.572,0 -14.928,6.281 -15.445,13.523 z"
   style="fill:#ffffff" />
	<path
   d="m 636.809,404.309 h 5.172 v 6.281 c 2.514,-5.025 8.057,-7.39 12.564,-7.39 4.137,0 8.055,1.33 10.861,4.508 1.035,1.035 2.365,3.695 2.588,4.138 0.59,-1.108 1.404,-2.66 2.881,-4.212 2.588,-2.734 6.504,-4.434 10.938,-4.434 4.064,0 7.98,1.182 10.715,3.99 3.475,3.474 4.508,7.76 4.508,14.78 v 22.096 h -5.469 v -21.874 c 0,-4.212 -0.664,-7.981 -2.955,-10.567 -1.625,-2.069 -4.139,-3.325 -7.908,-3.325 -3.473,0 -6.871,1.404 -8.719,4.138 -1.996,2.808 -2.365,5.025 -2.365,9.533 v 22.096 h -5.469 V 421.97 c 0.148,-4.434 -0.518,-7.02 -2.068,-9.459 -1.848,-2.586 -4.656,-4.138 -8.721,-4.212 -3.695,-0.148 -6.799,1.7 -8.424,4.064 -1.699,2.291 -2.66,5.32 -2.66,9.533 v 22.169 h -5.469 z"
   style="fill:#ffffff" />
	<path
   d="m 709.152,425.739 c 0.295,9.976 8.793,14.78 15.52,14.706 6.133,0 11.084,-3.03 13.67,-8.203 h 5.691 c -1.848,4.286 -4.656,7.538 -8.057,9.681 -3.324,2.143 -7.24,3.251 -11.305,3.251 -13.82,0 -20.988,-11.011 -20.988,-20.913 0,-11.676 9.016,-21.061 20.914,-21.061 5.615,0 10.789,1.995 14.557,5.616 4.582,4.434 6.799,10.567 6.209,16.923 z m 30.817,-4.36 c -0.371,-6.946 -7.096,-13.745 -15.297,-13.523 -8.572,0 -14.928,6.281 -15.445,13.523 z"
   style="fill:#ffffff" />
</g>
<g
   id="Upscheme_Logo"
   transform="translate(-206.9949,-333.52122)">
	<path
   d="m 348.684,374.275 -69.799,-40.258 -69.762,40.318 0.033,80.575 69.797,40.256 69.763,-40.316 z m -89.613,0.42 9.78,16 h -4.93 v 31.103 l -9.7,5.746 v -36.849 h -4.929 z m -29.527,27.216 9.778,-15.998 9.781,15.998 h -4.932 v 31.586 l -9.7,5.746 V 401.91 h -4.927 z m 49.401,73.927 -8.518,-4.914 52.883,-31.327 h 0.078 V 401.91 h 4.928 l -9.778,-15.998 -9.781,15.998 h 4.931 v 32.49 l -52.579,31.149 -8.883,-5.124 51.413,-30.457 v -39.273 h 4.93 l -9.78,-15.999 -9.779,15.999 h 4.93 v 34.123 l -49.57,29.368 -9.229,-4.47 43.753,-25.92 v -70.449 l 53.053,30.6 0.026,61.245 z"
   style="fill:#ffffff" />
</g>
</svg>
