<?xml version="1.0" encoding="utf-8"?>
<!DOCTYPE svg PUBLIC "-//W3C//DTD SVG 1.1//EN" "http://www.w3.org/Graphics/SVG/1.1/DTD/svg11.dtd">
<svg version="1.1" xmlns="http://www.w3.org/2000/svg" xmlns:xlink="http://www.w3.org/1999/xlink" x="0px" y="0px" width="960px"
	 height="960px" viewBox="0 0 960 960" enable-background="new 0 0 960 960" xml:space="preserve">
<g id="Tagline">
</g>
<g id="Upscheme_Text">
	<path fill="#FFFFFF" d="M376.917,389.381v34.658c0,4.138,0,7.316,2.586,11.011c1.921,2.734,5.542,4.582,9.533,4.582
		c3.917,0,7.538-1.773,9.385-4.508c2.586-3.621,2.586-6.798,2.586-11.084v-34.658h6.06v34.658
		c0.074,6.355-0.739,12.637-6.208,16.849c-3.03,2.586-7.094,4.138-11.824,4.138c-3.843,0-8.646-1.108-12.045-4.138
		c-5.764-4.655-6.208-10.863-6.208-16.849v-34.658H376.917z"/>
	<path fill="#FFFFFF" d="M417.042,404.309h5.173v8.277c3.251-5.764,9.016-9.385,16.627-9.385
		c13.375,0,20.396,10.863,20.396,21.135c0,11.085-8.055,20.839-20.396,20.839c-8.794,0-14.484-5.099-16.332-9.237v8.129v15.075
		h-5.468V404.309z M453.77,424.113c0-7.464-5.247-15.888-15.962-15.888c-4.434,0-8.35,1.774-11.232,4.656
		c-2.734,2.882-4.434,6.873-4.434,11.38c0,4.434,1.7,8.424,4.582,11.306c2.808,2.809,6.798,4.508,11.232,4.508
		c8.942,0,15.814-6.798,15.814-15.888V424.113z"/>
	<path fill="#FFFFFF" d="M484.731,414.285c0-4.212-2.808-6.577-6.799-6.577c-4.36,0-7.02,2.956-6.873,6.429
		c0.148,3.769,3.03,5.321,7.833,6.725c5.69,1.552,12.046,3.178,12.341,11.676c0.296,7.316-5.616,12.637-13.154,12.637
		c-6.429,0-13.523-4.064-13.597-12.415h5.395c0.222,5.469,4.286,7.907,8.276,7.907c4.582,0,7.76-3.399,7.686-7.464
		c-0.148-4.508-3.104-6.355-9.976-8.35c-5.69-1.7-10.124-3.991-10.272-10.272c0-7.168,5.69-11.38,12.415-11.38
		c5.542,0,11.749,3.03,12.119,11.084H484.731z"/>
	<path fill="#FFFFFF" d="M538.086,430.616c-2.588,8.425-10.346,14.558-19.879,14.558c-13.449,0-21.357-10.346-21.357-20.987
		c0-11.75,8.942-20.987,20.988-20.987c8.941,0,17.514,5.321,20.248,14.854h-5.617c-2.512-6.725-8.793-9.829-14.41-9.829
		c-4.655,0-7.906,1.404-11.232,4.508c-2.66,2.586-4.508,6.873-4.508,11.455c0,9.385,7.094,15.888,15.666,15.888
		c7.611-0.074,12.711-4.655,14.41-9.459H538.086z"/>
	<path fill="#FFFFFF" d="M544.809,389.381h5.469v14.558v6.873c2.438-5.247,8.572-7.759,14.188-7.611
		c6.281,0,10.42,1.995,13.154,5.468c2.734,3.474,3.77,8.277,3.77,13.967v21.431h-5.395v-21.209c0-4.286-0.887-7.907-2.883-10.493
		c-2.143-2.587-5.246-4.064-9.977-4.064c-4.359,0-7.611,1.552-9.68,3.917c-2.145,2.365-3.178,5.616-3.178,9.237v22.613h-5.469
		V389.381z"/>
	<path fill="#FFFFFF" d="M593.58,425.739c0.295,9.976,8.793,14.78,15.518,14.706c6.133,0,11.084-3.03,13.672-8.203h5.689
		c-1.848,4.286-4.656,7.538-8.055,9.681c-3.326,2.143-7.242,3.251-11.307,3.251c-13.818,0-20.986-11.011-20.986-20.913
		c0-11.676,9.016-21.061,20.912-21.061c5.617,0,10.789,1.995,14.559,5.616c4.582,4.434,6.799,10.567,6.207,16.923H593.58z
			M624.395,421.379c-0.369-6.946-7.094-13.745-15.297-13.523c-8.572,0-14.928,6.281-15.445,13.523H624.395z"/>
	<path fill="#FFFFFF" d="M636.809,404.309h5.172v6.281c2.514-5.025,8.057-7.39,12.564-7.39c4.137,0,8.055,1.33,10.861,4.508
		c1.035,1.035,2.365,3.695,2.588,4.138c0.59-1.108,1.404-2.66,2.881-4.212c2.588-2.734,6.504-4.434,10.938-4.434
		c4.064,0,7.98,1.182,10.715,3.99c3.475,3.474,4.508,7.76,4.508,14.78v22.096h-5.469v-21.874c0-4.212-0.664-7.981-2.955-10.567
		c-1.625-2.069-4.139-3.325-7.908-3.325c-3.473,0-6.871,1.404-8.719,4.138c-1.996,2.808-2.365,5.025-2.365,9.533v22.096h-5.469
		V421.97c0.148-4.434-0.518-7.02-2.068-9.459c-1.848-2.586-4.656-4.138-8.721-4.212c-3.695-0.148-6.799,1.7-8.424,4.064
		c-1.699,2.291-2.66,5.32-2.66,9.533v22.169h-5.469V404.309z"/>
	<path fill="#FFFFFF" d="M709.152,425.739c0.295,9.976,8.793,14.78,15.52,14.706c6.133,0,11.084-3.03,13.67-8.203h5.691
		c-1.848,4.286-4.656,7.538-8.057,9.681c-3.324,2.143-7.24,3.251-11.305,3.251c-13.82,0-20.988-11.011-20.988-20.913
		c0-11.676,9.016-21.061,20.914-21.061c5.615,0,10.789,1.995,14.557,5.616c4.582,4.434,6.799,10.567,6.209,16.923H709.152z
			M739.969,421.379c-0.371-6.946-7.096-13.745-15.297-13.523c-8.572,0-14.928,6.281-15.445,13.523H739.969z"/>
</g>
<g id="Upscheme_Logo">
	<path fill="#FFFFFF" d="M348.684,374.275l-69.799-40.258l-69.762,40.318l0.033,80.575l69.797,40.256l69.763-40.316L348.684,374.275
		z M259.071,374.695l9.78,16h-4.93v31.103l-9.7,5.746v-36.849h-4.929L259.071,374.695z M229.544,401.911l9.778-15.998l9.781,15.998
		h-4.932v31.586l-9.7,5.746v-37.333H229.544z M278.945,475.838l-8.518-4.914l52.883-31.327h0.078v-37.687h4.928l-9.778-15.998
		l-9.781,15.998h4.931v32.49l-52.579,31.149l-8.883-5.124l51.413-30.457v-39.273h4.93l-9.78-15.999l-9.779,15.999h4.93v34.123
		l-49.57,29.368l-9.229-4.47l43.753-25.92v-70.449l53.053,30.6l0.026,61.245L278.945,475.838z"/>
</g>
</svg>
